<svg xmlns="http://www.w3.org/2000/svg" viewBox="0 0 535.28 164.04"><defs><style>.cls-1{fill:#fff;}</style></defs><g id="Layer_2" data-name="Layer 2"><g id="Layer_1-2" data-name="Layer 1"><path class="cls-1" d="M244.36,58.1q-8.49,9.56-19.69,9.56a24,24,0,0,1-11-2.56,28,28,0,0,1-8.7-6.75,32.26,32.26,0,0,1-5.68-9.56,30,30,0,0,1-2.06-10.88,31.19,31.19,0,0,1,2-11.12,30.83,30.83,0,0,1,5.6-9.48,27,27,0,0,1,8.53-6.55,24.1,24.1,0,0,1,10.79-2.43,30.2,30.2,0,0,1,7.87.95,23.59,23.59,0,0,1,6.26,2.64,19.9,19.9,0,0,1,4.78,4,25.06,25.06,0,0,1,3.42,5.15L243,23.16a18.84,18.84,0,0,0-7.87-8.36,23.32,23.32,0,0,0-11.08-2.6,19.79,19.79,0,0,0-9.39,2.23,23,23,0,0,0-7.17,5.85A26,26,0,0,0,203,28.52,29.14,29.14,0,0,0,201.43,38a26.82,26.82,0,0,0,1.81,9.84,26.53,26.53,0,0,0,5,8.2,24.43,24.43,0,0,0,7.45,5.65,20.72,20.72,0,0,0,9.23,2.1,22,22,0,0,0,10.18-2.48,30.26,30.26,0,0,0,9.27-7.82V42.2H231.09V38.82H248V67.25h-3.62Z"/><path class="cls-1" d="M259.44,7.1h4.2V58.76A5.19,5.19,0,0,0,265,62.55a5,5,0,0,0,3.75,1.4,13.77,13.77,0,0,0,2.18-.21,11.53,11.53,0,0,0,2.35-.61l.82,3.29a16.82,16.82,0,0,1-3.46,1,20.08,20.08,0,0,1-3.54.37,7.51,7.51,0,0,1-5.56-2.1,7.62,7.62,0,0,1-2.1-5.64Z"/><path class="cls-1" d="M298.41,68.07a19.67,19.67,0,0,1-8.36-1.77,20.58,20.58,0,0,1-6.63-4.82,22.16,22.16,0,0,1-4.37-7.09,23.65,23.65,0,0,1,0-17,22.8,22.8,0,0,1,4.41-7.09,20.69,20.69,0,0,1,6.63-4.82,19.47,19.47,0,0,1,8.28-1.77,19.23,19.23,0,0,1,8.24,1.77,21.25,21.25,0,0,1,6.63,4.82,22.36,22.36,0,0,1,4.45,7.09,22.79,22.79,0,0,1,1.61,8.57,22.55,22.55,0,0,1-1.61,8.48,23,23,0,0,1-4.4,7.09,20.73,20.73,0,0,1-6.64,4.82A19.47,19.47,0,0,1,298.41,68.07Zm-16.81-22a19.22,19.22,0,0,0,1.32,7.13A18.73,18.73,0,0,0,286.5,59a17,17,0,0,0,5.32,3.91,15.44,15.44,0,0,0,13,0,16.81,16.81,0,0,0,5.35-4,19.84,19.84,0,0,0,3.63-20.23,18.61,18.61,0,0,0-3.63-5.85,17.82,17.82,0,0,0-5.31-4,14.42,14.42,0,0,0-6.47-1.48,14.65,14.65,0,0,0-6.51,1.48,17,17,0,0,0-5.31,4,20.14,20.14,0,0,0-3.63,6A19.45,19.45,0,0,0,281.6,46.07Z"/><path class="cls-1" d="M349.25,68.07a17.83,17.83,0,0,1-9.39-2.64A19.49,19.49,0,0,1,333,58.68v8.57h-3.79V7.1h4.12V33.71a26.89,26.89,0,0,1,7.21-7.25,16.75,16.75,0,0,1,9.6-2.8,17.31,17.31,0,0,1,8.2,1.93,19.4,19.4,0,0,1,6.17,5.11,23.89,23.89,0,0,1,3.88,7.17A25.25,25.25,0,0,1,369.77,46a23,23,0,0,1-1.57,8.44,22.19,22.19,0,0,1-4.32,7,21.6,21.6,0,0,1-6.51,4.82A18.4,18.4,0,0,1,349.25,68.07Zm-.82-3.71a15.33,15.33,0,0,0,6.92-1.56,17.44,17.44,0,0,0,5.39-4.16,19.79,19.79,0,0,0,3.55-5.89A18.6,18.6,0,0,0,365.57,46a20.37,20.37,0,0,0-1.2-7A19.12,19.12,0,0,0,361,33.09a17,17,0,0,0-5.19-4.16,14.21,14.21,0,0,0-6.63-1.56,13.73,13.73,0,0,0-5.11.94,18,18,0,0,0-4.41,2.52A20.33,20.33,0,0,0,336,34.45a23,23,0,0,0-2.68,4.29V52.91a9,9,0,0,0,1.81,4.49A16.17,16.17,0,0,0,338.91,61a20,20,0,0,0,4.74,2.43A14.39,14.39,0,0,0,348.43,64.36Z"/><path class="cls-1" d="M390.2,68.07a14.57,14.57,0,0,1-5.52-1,14.87,14.87,0,0,1-4.49-2.8,12.5,12.5,0,0,1-3-4.2,12.91,12.91,0,0,1-1.07-5.23,10.11,10.11,0,0,1,1.32-5.11,12.64,12.64,0,0,1,3.67-4,18.4,18.4,0,0,1,5.64-2.64,26.29,26.29,0,0,1,7.25-.94,40.28,40.28,0,0,1,7,.61,35.53,35.53,0,0,1,6.3,1.69v-4.2q0-6.09-3.46-9.68T394.4,27a19.09,19.09,0,0,0-6.63,1.32,34.62,34.62,0,0,0-7.13,3.79l-1.56-2.8q8.24-5.6,15.65-5.6,7.75,0,12.2,4.49t4.45,12.4V61.48c0,1.37.6,2.06,1.81,2.06v3.71c-.27,0-.56.09-.86.12s-.57,0-.79,0a3.34,3.34,0,0,1-2.63-1.11,4.64,4.64,0,0,1-1.16-2.68V60.08A19.17,19.17,0,0,1,400.17,66,24.21,24.21,0,0,1,390.2,68.07Zm.83-3.3A21,21,0,0,0,399.8,63a14.88,14.88,0,0,0,6.14-4.78,5.5,5.5,0,0,0,1.32-3.29V47.31a32.87,32.87,0,0,0-6.18-1.73A37.23,37.23,0,0,0,394.4,45a22.53,22.53,0,0,0-5.84.7A15.58,15.58,0,0,0,384,47.64a8.88,8.88,0,0,0-2.92,3,7.65,7.65,0,0,0-1,3.92,10,10,0,0,0,.82,4,9.54,9.54,0,0,0,2.31,3.25A10.87,10.87,0,0,0,386.7,64,11.72,11.72,0,0,0,391,64.77Z"/><path class="cls-1" d="M424.23,7.1h4.2V58.76a5.24,5.24,0,0,0,1.36,3.79,5,5,0,0,0,3.75,1.4,13.88,13.88,0,0,0,2.19-.21,11.43,11.43,0,0,0,2.34-.61l.83,3.29a17.18,17.18,0,0,1-3.46,1,20.27,20.27,0,0,1-3.54.37,7.53,7.53,0,0,1-5.57-2.1,7.62,7.62,0,0,1-2.1-5.64Z"/><path class="cls-1" d="M195.63,82v9.53H224.8V156h10.72V91.55H264.7V82Z"/><path class="cls-1" d="M279,156a22.23,22.23,0,0,1-8.22-1.49,20.54,20.54,0,0,1-6.61-4.1,19.37,19.37,0,0,1-4.4-6.14,18.25,18.25,0,0,1-1.61-7.68,16.09,16.09,0,0,1,1.91-7.8,17.68,17.68,0,0,1,5.42-6,27.81,27.81,0,0,1,8.33-3.93,36.75,36.75,0,0,1,10.54-1.43,52.29,52.29,0,0,1,9.17.83,42.72,42.72,0,0,1,8.22,2.26v-5q0-7.62-4.29-12T285.3,99.23q-9.41,0-19.77,7.26l-3.45-6.79q12-8.08,24.18-8.09t19.11,6.55q6.86,6.54,6.85,18.46V142q0,3.69,3.33,3.81v9.05c-1.11.16-2,.28-2.74.36a20.3,20.3,0,0,1-2.26.12,6.64,6.64,0,0,1-4.94-1.85,7.56,7.56,0,0,1-2.2-4.46l-.24-4.41a27,27,0,0,1-10.54,8.52A32.47,32.47,0,0,1,279,156Zm2.74-7.86a26,26,0,0,0,10.42-2.08,17.13,17.13,0,0,0,7.33-5.54,6.62,6.62,0,0,0,2.26-4.64v-9.17a43,43,0,0,0-15.84-3q-7.86,0-12.8,3.34t-5,8.69a11.72,11.72,0,0,0,1,4.88A11.54,11.54,0,0,0,272,144.6a13.8,13.8,0,0,0,4.35,2.62A14.86,14.86,0,0,0,281.73,148.17Z"/><path class="cls-1" d="M353.18,144.72a23.25,23.25,0,0,1-3.33,1,13.85,13.85,0,0,1-3.1.42,6.78,6.78,0,0,1-5.18-2,7.62,7.62,0,0,1-1.84-5.43V82H329.25v60.55q0,6.21,3.5,9.65c2.36,2.3,5.54,3.46,9.59,3.46a32.44,32.44,0,0,0,6.32-.72,33.87,33.87,0,0,0,6.19-1.78Z"/><path class="cls-1" d="M390.58,156a31.58,31.58,0,0,1-12.86-2.56,30.3,30.3,0,0,1-10-7,31.79,31.79,0,0,1-6.49-10.3,33.82,33.82,0,0,1-2.32-12.45,33.31,33.31,0,0,1,2.32-12.38,31.48,31.48,0,0,1,6.55-10.25,31.13,31.13,0,0,1,10.07-7,31.58,31.58,0,0,1,12.86-2.56,30.53,30.53,0,0,1,22.63,9.58,31.07,31.07,0,0,1,6.25,10.12,33.35,33.35,0,0,1,2.2,12c0,.88,0,1.67-.06,2.39a12.28,12.28,0,0,1-.18,1.66H370a24,24,0,0,0,2.14,8.46,21.88,21.88,0,0,0,4.64,6.55,21.63,21.63,0,0,0,6.49,4.29,19.49,19.49,0,0,0,7.69,1.54,20.27,20.27,0,0,0,5.59-.77,24.41,24.41,0,0,0,5.12-2.08,17.93,17.93,0,0,0,4.23-3.22,13.2,13.2,0,0,0,2.8-4.29l9.05,2.5a22.73,22.73,0,0,1-4.23,6.32,28.09,28.09,0,0,1-6.19,4.94,31.73,31.73,0,0,1-7.8,3.27A33,33,0,0,1,390.58,156Zm21.32-36.44a22.56,22.56,0,0,0-2.21-8.16,21.94,21.94,0,0,0-4.64-6.37,21.08,21.08,0,0,0-6.49-4.11,21.61,21.61,0,0,0-15.72,0,20.41,20.41,0,0,0-6.49,4.17,21.07,21.07,0,0,0-4.53,6.37,23.59,23.59,0,0,0-2.08,8.1Z"/><path class="cls-1" d="M487.4,154.84H476.92V120.07q0-10-3-14.53T464.65,101a17.7,17.7,0,0,0-6.43,1.25,25.65,25.65,0,0,0-6.07,3.4,23.64,23.64,0,0,0-5,5.12,22,22,0,0,0-3.21,6.55v37.51H433.45V92.68H443V106a27.28,27.28,0,0,1,10.66-10.48,30.35,30.35,0,0,1,15.18-3.93,18.35,18.35,0,0,1,8.93,2,15.19,15.19,0,0,1,5.72,5.48,24.42,24.42,0,0,1,3,8.28,56.73,56.73,0,0,1,.89,10.36Z"/><path class="cls-1" d="M532.77,143.41a24.82,24.82,0,0,1-3.51,1.61,15.15,15.15,0,0,1-5.65,1,7.56,7.56,0,0,1-4.77-1.55,6.5,6.5,0,0,1-2.26-5V100.9h13.93V92.68H516.58V82H506.1V92.68h-8.46v8.22h8.46v41.8q0,6.68,4.16,9.82a15.89,15.89,0,0,0,9.89,3.16,27.1,27.1,0,0,0,4.82-.42,30.21,30.21,0,0,0,4.29-1.07c1.32-.43,2.48-.87,3.51-1.32s1.87-.8,2.51-1.13Z"/><path class="cls-1" d="M7.43,87.85C4.45,45.76,35.29,10.4,76.94,3.33a2.5,2.5,0,1,0-.14-.83v.11a3.47,3.47,0,0,0,.06.45C31.6,7-2.94,44,.2,88.42c3.17,44.89,43,78.65,89,75.41,1.2-.09,2.39-.2,3.58-.33C48.34,164.76,10.51,131.58,7.43,87.85Z"/><path class="cls-1" d="M156.79,57.17s0,0,0,0c-.92-2.15-2-4.27-3.09-6.34-.46-.85-.94-1.68-1.43-2.5a79.3,79.3,0,0,0-9.35-12.7,58,58,0,0,0-6.71-6.34l0,0-.7-.55v0c-1.9-1.5-3.86-2.88-5.86-4.17l-.05,0a71.25,71.25,0,0,1,6.15,5.24h0v0l0,0a75.71,75.71,0,0,1-6.88,19.1c-1.41-.57-2.84-1.12-4.28-1.65l-.27-.1c-2.69-1-5.44-2-8.23-2.9h0l-.68-.22-.24-.49c-.08-.13-.15-.26-.22-.4-1-1.85-2.1-3.72-3.22-5.57A146.37,146.37,0,0,0,88.38,8a62.7,62.7,0,0,1,15.2.2h0c.91.07,13.9,1.16,30.26,12,2.21,1.46,4.48,3.1,6.79,4.95a.16.16,0,0,1,.06-.08,77.88,77.88,0,0,0-6.49-5.24,70.26,70.26,0,0,0-11.32-6.64,74.54,74.54,0,0,0-67.33,2A72.21,72.21,0,0,0,42,24.88c-.48.43-1,.87-1.42,1.32h0s0,0,0,0A72.69,72.69,0,0,0,20.81,58.51h0c-5.55,28.31,25.28,44.63,32.4,48l.3.13.29.14.36.16.27.12.2.09h0A68.54,68.54,0,0,1,44.2,93.89s0,0-.05-.07A63.4,63.4,0,0,1,36,69.45s0-.07,0-.2,0-.26,0-.4v0A55,55,0,0,1,46.32,30c.25-.34.5-.67.77-1a7.77,7.77,0,0,1,.51-.66c.24-.3.48-.6.73-.89s.68-.82,1.05-1.22c.55-.64,1.15-1.28,1.78-1.9l.28-.29a34.75,34.75,0,0,1,4.69-4.16s.53-.4,1.54-1.05a50.36,50.36,0,0,1,6-3.65,64.91,64.91,0,0,1,17.48-6l.41-.09c1.49-.32,3-.59,4.63-.8l.29.27a143.57,143.57,0,0,1,23.74,29.9c.94,1.54,1.89,3.18,2.82,4.87q-6.63-2.13-13.56-3.88C92,37.54,84.58,36,77.3,34.85a1.47,1.47,0,0,0,0-.36,1.51,1.51,0,0,0-2.94.66,1.52,1.52,0,0,0,1.81,1.14,1.5,1.5,0,0,0,1.13-1.14c.65.11,1.31.2,2,.32l.57.11-.5-.09a285,285,0,0,1,34.56,9.29h0l.24.47c1.8,3.36,3.52,6.89,5.1,10.48l.14.31.14.33c-3.54,1.6-5.22,6-3.78,10a9.59,9.59,0,0,0,.51,1.17l.28.5a98.25,98.25,0,0,1-14.72,15.46c-12.53,10.58-26.29,16.94-39.22,19h0a56.34,56.34,0,0,1-6.36.68,61.27,61.27,0,0,0,6.55-.45,82.45,82.45,0,0,0,32.5-11.42,92.73,92.73,0,0,0,24-20.46s0,0,0,0a7.23,7.23,0,0,0,6.17.84s0,0,0,0c.06.19.12.38.18.59a145.61,145.61,0,0,1,6.33,47.11c0,.07,0,.15,0,.21a55.22,55.22,0,0,1-24.38,7.66h-.11c-3.09.43-56.13,6.82-89.64-46.32a75.84,75.84,0,0,0,19.58,49.52c27.57,30.67,74.16,33.86,104.6,7.36l.07-.06C163.7,117,168.75,84.79,156.79,57.17ZM155,62l-.44-.26L153.33,61l-.45-.26,1.59.65a.19.19,0,0,0,0-.08l.5.29ZM139.13,33.28v0h0Zm-5.82,17.49h0a63,63,0,0,0,5.82-17.45,67.79,67.79,0,0,1,11.12,16.46l.29.63a63.83,63.83,0,0,1,3.91,10.94l-1.23-.72-.26-.15a182.46,182.46,0,0,0-19.65-9.7ZM116.2,45.61l.42.14c3.82,1.37,7.7,2.88,11.5,4.53h0q-1.56,2.92-3.39,5.8a7.13,7.13,0,0,0-3.64-.25.14.14,0,0,1,0-.07,3.27,3.27,0,0,0-.14-.33l-.14-.31C119.36,51.85,117.81,48.65,116.2,45.61Zm9.35,22.88a5.38,5.38,0,0,1-.55.24l-.12,0a4.66,4.66,0,0,1-3.55-.32,5.67,5.67,0,0,1-2.73-3.1.3.3,0,0,1,0-.1.33.33,0,0,1,0-.06,2.12,2.12,0,0,1-.09-.31A5.22,5.22,0,0,1,121,58.5a2.52,2.52,0,0,1,.33-.13l.36-.12a4.6,4.6,0,0,1,1.69-.11,5.43,5.43,0,0,1,3.92,2.69,6,6,0,0,1,.51,1.08A5.31,5.31,0,0,1,125.55,68.49Zm20.8,38.07a49.9,49.9,0,0,1-12.74,12,147.84,147.84,0,0,0-6.43-46.87l-.21-.65,0-.11a8.07,8.07,0,0,0,3-9.61,8.36,8.36,0,0,0-1.34-2.46,72.84,72.84,0,0,0,3.93-6.62h0c8.74,4.11,16.89,9,23.06,14.72C157.79,80.9,154.9,95,146.35,106.56Z"/></g></g></svg>