<svg xmlns="http://www.w3.org/2000/svg" viewBox="0 0 591.36 163.3"><defs><style>.cls-1{fill:#fff;}</style></defs><g id="Layer_2" data-name="Layer 2"><g id="Layer_1-2" data-name="Layer 1"><path class="cls-1" d="M91.2,6.19c-.52.54-1,1.1-1.51,1.68-.89.06-1.76.15-2.63.25l-.91.12c-1.79.24-3.54.54-5.22.91l-.4.08a65,65,0,0,0-17.38,6,49.65,49.65,0,0,0-6,3.65c-1,.65-1.53,1.05-1.53,1.05A33.15,33.15,0,0,0,51,24.1a2.54,2.54,0,0,0-.28.29q-.94.93-1.77,1.89c-.37.4-.71.81-1,1.21s-.49.59-.72.89-.36.44-.51.66-.51.65-.76,1A54.77,54.77,0,0,0,35.75,68.72v0c0,.13,0,.26,0,.39s0,.2,0,.2A63.3,63.3,0,0,0,44,93.57l0,.07A68.31,68.31,0,0,0,54.46,106.8h0a1.88,1.88,0,0,0-.19-.09l-.27-.11-.36-.17-.29-.13-.3-.14c-7.09-3.32-37.82-19.46-32.39-47.64h0A72.37,72.37,0,0,1,40.16,26.35s0,0,0,0l0,0L41.63,25A72.75,72.75,0,0,1,91.2,6.19Z"/><path class="cls-1" d="M141.48,137l-.07.06c-30.2,26.46-76.57,23.43-104.09-7a75.48,75.48,0,0,1-19.64-49.2c33.51,52.76,86.26,46.23,89.34,45.8h.1a55.06,55.06,0,0,0,24.73-8c.23-.14.47-.28.7-.44a49.66,49.66,0,0,0,13.13-12.32c11.89-16.12,12.66-37.35,4-55.88l-.29-.63c-.13-.25-.24-.51-.38-.76h0c.47-.81.89-1.62,1.28-2.46.38.58.74,1.17,1.09,1.77.5.82,1,1.65,1.44,2.49q1.69,3.09,3.09,6.3v0C167.9,84.2,163,116.3,141.48,137Z"/><path class="cls-1" d="M7.4,87.74C4.32,46,34.78,10.73,76.09,3.48a2.46,2.46,0,1,0-.17-.87v.11a2.32,2.32,0,0,0,.07.46C31.09,7.32-3,44.23.22,88.33,3.51,133,43.24,166.44,89,163.07c1.2-.09,2.39-.2,3.56-.34C48.35,164.12,10.61,131.23,7.4,87.74Z"/><path class="cls-1" d="M132.82,24.38c1.15-10.53-1.29-18-4.21-21.1a7.54,7.54,0,0,0-2.29-1.52,7.47,7.47,0,0,0-2.74,0C118.1,3,109,11.06,104.05,27.41c-3.62,11.92-2,28.35-4.72,53.4a1.66,1.66,0,0,0,1.25,1.7l1,.31,1,.31h0a1.69,1.69,0,0,0,2-.72c11.74-22.29,22.25-35,25.89-46.94a60.31,60.31,0,0,0,2.34-11.09"/><path class="cls-1" d="M95.38,80.93a1.43,1.43,0,0,0,1.79-1.54c-.28-15.08-5.11-38.85-.3-54.64,5-16.5,17.9-26.52,28.15-23.39C108.93-3.55,92,5.17,86.77,22.28c-4.3,14.08,4,31.08,7.64,57.56A1.39,1.39,0,0,0,95.38,80.93Z"/><path class="cls-1" d="M137.92,37.27c-4.82,15.79-22.1,32.82-30.75,45.18a1.43,1.43,0,0,0,.63,2.27h0a1.37,1.37,0,0,0,1.41-.37c17.84-19.91,34.18-29.4,38.47-43.48,5.22-17.11-4-33.81-20.05-38.72C137.88,5.28,143,20.78,137.92,37.27Z"/><path class="cls-1" d="M108,91.18v0a2.75,2.75,0,0,1-.12,1.06l-2.1,6.87c-.8.47-1.58,1-2.33,1.5a19.57,19.57,0,0,0-2.26-1.22,19.31,19.31,0,0,0-12.43-1.17A2.9,2.9,0,0,1,88.44,96l2.69-8.8a5,5,0,0,1,1.2-1.57l.6-.59a3.67,3.67,0,0,1,2.82-1l-1,2.62a.63.63,0,0,0,.33.85l9.79,2.79a.64.64,0,0,0,.73-.57l.42-2.81a2.34,2.34,0,0,1,1.46,1.72l.4,2.09,0,.09Z"/><path class="cls-1" d="M150.49,77.46a1.15,1.15,0,0,1,0,.19c0,1-.12,2-.24,3-.06.55-.12,1.08-.21,1.6,0,.33-.1.65-.16,1s-.07.49-.12.72-.11.56-.17.83-.13.61-.2.92l-.18.73c0,.22-.11.44-.18.67s-.17.65-.27,1-.2.69-.32,1a1.71,1.71,0,0,1-.09.3q-.22.69-.48,1.38c0,.08-.07.17-.1.26-.18.47-.36.94-.55,1.39,0,.09-.08.17-.11.26-.22.49-.44,1-.67,1.46s-.51,1-.78,1.56-.55,1-.84,1.51l-.91,1.49-1,1.45-1,1.41c-4.83,6.32-11.64,11.58-20.28,15.6-16.46,7.66-35.31,5.35-51-4.46l-1-.64a65.12,65.12,0,0,1-9.6-7.6l-.83-.8c-.59-.58-1.18-1.17-1.74-1.78-.86-.9-1.7-1.84-2.52-2.8a73,73,0,0,1-5.4-7.25L48.89,91a75.9,75.9,0,0,1-4.49-8.26c-.28-.61-.57-1.23-.83-1.84s-.52-1.24-.77-1.86-.43-1.08-.64-1.63q-.44-1.2-.84-2.4c-.17-.52-.35-1-.5-1.56a21.08,21.08,0,0,1,14.63,1.67,20.81,20.81,0,0,0-5.25-3.67A25.89,25.89,0,0,1,87.33,65c1,4.75,2,9.86,2.76,15.37l0,.45c0,.43.06.76.09,1a9.67,9.67,0,0,1-.83.67A6.74,6.74,0,0,0,87,85.92l-2.69,8.79a7.22,7.22,0,0,0,.32,5.05c-.48.23-.93.48-1.38.75.51-.15,1-.27,1.55-.38a18.78,18.78,0,0,1,7.09-.06A17.32,17.32,0,0,1,96,101.34l.15.06a18.67,18.67,0,0,1,7.41,6,.2.2,0,0,1,.08.1l.15-.15a32.76,32.76,0,0,1,5.29-4.41,31.57,31.57,0,0,1,18.38-5.25,32,32,0,0,1,5.12.56A28.78,28.78,0,0,0,111,96.81l1-3.25a7.17,7.17,0,0,0,0-4.3l-.22-1.19c.42-.55,1.29-1.52,2.61-2.9,3-3.3,6.07-6.33,9-9.13a32.56,32.56,0,0,1,27.18,1.42Z"/><path class="cls-1" d="M242.08,62q-8.49,9.57-19.69,9.56a24.11,24.11,0,0,1-11-2.55,27.88,27.88,0,0,1-8.69-6.76A32.07,32.07,0,0,1,197,52.73,30.11,30.11,0,0,1,195,41.86a31.2,31.2,0,0,1,2-11.13,30.67,30.67,0,0,1,5.6-9.47,26.85,26.85,0,0,1,8.53-6.55,24.13,24.13,0,0,1,10.79-2.43,30.17,30.17,0,0,1,7.87.94A23.59,23.59,0,0,1,236,15.86a19.75,19.75,0,0,1,4.78,4,24.53,24.53,0,0,1,3.42,5.15l-3.46,2.06a18.76,18.76,0,0,0-7.87-8.37,23.29,23.29,0,0,0-11.08-2.59,19.78,19.78,0,0,0-9.39,2.22,23.41,23.41,0,0,0-7.17,5.85,26.14,26.14,0,0,0-4.53,8.24,29.18,29.18,0,0,0-1.57,9.48A27.12,27.12,0,0,0,201,51.79,26.59,26.59,0,0,0,206,60a24,24,0,0,0,7.46,5.65,20.66,20.66,0,0,0,9.23,2.1,22.06,22.06,0,0,0,10.17-2.47,30.33,30.33,0,0,0,9.27-7.83V46.14H228.82V42.76h16.89V71.19h-3.63Z"/><path class="cls-1" d="M257.16,11h4.2V62.7a5.22,5.22,0,0,0,1.36,3.79,5,5,0,0,0,3.75,1.4,13.52,13.52,0,0,0,2.18-.2,11.36,11.36,0,0,0,2.35-.62l.83,3.3a17.23,17.23,0,0,1-3.46.94,20.28,20.28,0,0,1-3.55.37,7.53,7.53,0,0,1-5.56-2.1,7.62,7.62,0,0,1-2.1-5.64Z"/><path class="cls-1" d="M296.13,72a19.67,19.67,0,0,1-8.36-1.77,20.69,20.69,0,0,1-6.63-4.82,22.11,22.11,0,0,1-4.37-7.08,23.42,23.42,0,0,1-1.57-8.49,23.15,23.15,0,0,1,6-15.66,20.8,20.8,0,0,1,6.63-4.82,19.54,19.54,0,0,1,8.28-1.77,19.2,19.2,0,0,1,8.24,1.77A21.41,21.41,0,0,1,311,34.19a23.3,23.3,0,0,1,4.45,24.15,23.12,23.12,0,0,1-4.41,7.08,20.73,20.73,0,0,1-6.64,4.82A19.47,19.47,0,0,1,296.13,72ZM279.32,50a19.18,19.18,0,0,0,1.32,7.13A18.64,18.64,0,0,0,284.23,63a16.94,16.94,0,0,0,5.31,3.91,15.34,15.34,0,0,0,13,0,17,17,0,0,0,5.36-4,19.36,19.36,0,0,0,4.94-13.1,19.18,19.18,0,0,0-1.32-7.13,18.77,18.77,0,0,0-3.62-5.85,17.86,17.86,0,0,0-5.32-4,14.39,14.39,0,0,0-6.47-1.48,14.71,14.71,0,0,0-6.51,1.48,17,17,0,0,0-5.31,4,20.14,20.14,0,0,0-3.63,6A19.49,19.49,0,0,0,279.32,50Z"/><path class="cls-1" d="M347,72a17.82,17.82,0,0,1-9.39-2.63,19.68,19.68,0,0,1-6.84-6.76v8.57H327V11h4.12V37.65a27,27,0,0,1,7.21-7.25,16.82,16.82,0,0,1,9.6-2.8,17.32,17.32,0,0,1,8.2,1.94,19.28,19.28,0,0,1,6.18,5.11,23.91,23.91,0,0,1,3.87,7.16,25,25,0,0,1,1.36,8.12,22.85,22.85,0,0,1-1.57,8.45,22.14,22.14,0,0,1-4.32,7,21.31,21.31,0,0,1-6.51,4.82A18.4,18.4,0,0,1,347,72Zm-.82-3.7a15.33,15.33,0,0,0,6.92-1.57,17.37,17.37,0,0,0,5.4-4.16A19.76,19.76,0,0,0,362,56.69a18.6,18.6,0,0,0,1.28-6.76,20.37,20.37,0,0,0-1.2-7A18.87,18.87,0,0,0,358.71,37a16.79,16.79,0,0,0-5.19-4.17,14.15,14.15,0,0,0-6.63-1.56,13.77,13.77,0,0,0-5.11.95,18.16,18.16,0,0,0-4.41,2.51,20.39,20.39,0,0,0-3.62,3.63,23.45,23.45,0,0,0-2.68,4.28V56.85a8.93,8.93,0,0,0,1.81,4.49A16.17,16.17,0,0,0,336.63,65a19.66,19.66,0,0,0,4.74,2.43A14.41,14.41,0,0,0,346.15,68.31Z"/><path class="cls-1" d="M387.92,72a14.7,14.7,0,0,1-10-3.83,12.34,12.34,0,0,1-3-4.2,12.71,12.71,0,0,1-1.07-5.23,10.1,10.1,0,0,1,1.31-5.11,12.64,12.64,0,0,1,3.67-4A18.38,18.38,0,0,1,384.46,47a26.28,26.28,0,0,1,7.25-.95,39.34,39.34,0,0,1,7,.62,34.71,34.71,0,0,1,6.3,1.68v-4.2q0-6.09-3.46-9.68t-9.39-3.58a18.87,18.87,0,0,0-6.64,1.32A33.38,33.38,0,0,0,378.37,36L376.8,33.2q8.24-5.6,15.66-5.6,7.74,0,12.19,4.49t4.45,12.4V65.42c0,1.38.6,2.06,1.81,2.06v3.71c-.27,0-.56.09-.86.12s-.56,0-.78,0a3.36,3.36,0,0,1-2.64-1.11,4.63,4.63,0,0,1-1.15-2.68V64A19.27,19.27,0,0,1,397.89,70,24.05,24.05,0,0,1,387.92,72Zm.83-3.29a21,21,0,0,0,8.77-1.82,14.94,14.94,0,0,0,6.14-4.77,5.55,5.55,0,0,0,1.32-3.3V51.25a32.87,32.87,0,0,0-6.18-1.73,38.14,38.14,0,0,0-6.67-.58,23,23,0,0,0-5.85.7,15.67,15.67,0,0,0-4.53,1.94,8.94,8.94,0,0,0-2.93,3,7.59,7.59,0,0,0-1,3.91,10,10,0,0,0,.82,4,9.45,9.45,0,0,0,2.31,3.25,11.18,11.18,0,0,0,3.5,2.15A11.93,11.93,0,0,0,388.75,68.72Z"/><path class="cls-1" d="M422,11h4.21V62.7a5.18,5.18,0,0,0,1.36,3.79,4.93,4.93,0,0,0,3.74,1.4,13.63,13.63,0,0,0,2.19-.2,11.71,11.71,0,0,0,2.35-.62l.82,3.3a17,17,0,0,1-3.46.94,20.08,20.08,0,0,1-3.54.37,7.51,7.51,0,0,1-5.56-2.1A7.59,7.59,0,0,1,422,63.94Z"/><path class="cls-1" d="M241.18,88.23l-16.31,43.56L208.49,88.23H198.16l22.47,56h8.48l22.4-56Z"/><path class="cls-1" d="M293.91,112.05a22.33,22.33,0,0,0-4.78-7.63,24.66,24.66,0,0,0-27-5.21,22.68,22.68,0,0,0-7.52,5.21,22.43,22.43,0,0,0-4.82,7.63,25.26,25.26,0,0,0-1.65,9.13,25.55,25.55,0,0,0,1.65,9.14A22.65,22.65,0,0,0,262,143.16a25.94,25.94,0,0,0,19.59,0,24.7,24.7,0,0,0,7.51-5.21,23,23,0,0,0,4.78-7.63,25.38,25.38,0,0,0,1.7-9.14A25.08,25.08,0,0,0,293.91,112.05Zm-9.33,15.3a16,16,0,0,1-2.93,4.94,13,13,0,0,1-4.35,3.31,12.46,12.46,0,0,1-5.44,1.2,12.3,12.3,0,0,1-5.43-1.2,13.52,13.52,0,0,1-4.36-3.27,15,15,0,0,1-2.93-4.9,17.79,17.79,0,0,1-1-6.17,17,17,0,0,1,1.08-6.13,15.76,15.76,0,0,1,3-5,13.51,13.51,0,0,1,4.36-3.35,11.72,11.72,0,0,1,5.35-1.28,13.06,13.06,0,0,1,5.44,1.2,14.08,14.08,0,0,1,4.35,3.31,16.38,16.38,0,0,1,2.93,5,18.51,18.51,0,0,1,0,12.29Z"/><path class="cls-1" d="M319.9,135.22c-.78.3-1.59.54-2.43.77a7.34,7.34,0,0,1-2.24.38,4.8,4.8,0,0,1-3.7-1.46,5.72,5.72,0,0,1-1.35-4V88.23h-9.71v46.18a10.51,10.51,0,0,0,2.81,7.78c1.85,1.82,4.43,2.74,7.79,2.74a26.46,26.46,0,0,0,5.2-.58,21.69,21.69,0,0,0,5.05-1.54Z"/><path class="cls-1" d="M367,135.14a3.85,3.85,0,0,1-.58-2.39V98.06h-9.71v28.75a16.53,16.53,0,0,1-5.71,7.44,13.79,13.79,0,0,1-7.86,2.55c-5.9,0-8.83-4.17-8.83-12.45V98.06h-9.72v28.25c0,6.21,1.24,10.91,3.71,14.07s6.12,4.7,10.94,4.7a23,23,0,0,0,10.87-2.58,20.51,20.51,0,0,0,8-7.63l.19,4.59a4.78,4.78,0,0,0,1.93,3.74,7.15,7.15,0,0,0,4.51,1.46c.58,0,1.2,0,1.85-.08s1.47-.19,2.47-.38v-8.29A2.75,2.75,0,0,1,367,135.14Z"/><path class="cls-1" d="M417.65,108.85a18.94,18.94,0,0,0-2.15-6,11.4,11.4,0,0,0-4.21-4.12,13.75,13.75,0,0,0-6.82-1.5,23.41,23.41,0,0,0-11.1,2.69,18.87,18.87,0,0,0-7.67,7.37V98.06h-8.83V144.2h9.71V116.75a15.34,15.34,0,0,1,2.24-4.35,17.73,17.73,0,0,1,3.31-3.44,14.26,14.26,0,0,1,4-2.27,11.71,11.71,0,0,1,4.24-.77,7,7,0,0,1,6.13,2.93c1.38,2,2.08,5.16,2.08,9.48V144.2h9.71V116.06A42.36,42.36,0,0,0,417.65,108.85Z"/><path class="cls-1" d="M452.77,134.14a25,25,0,0,1-2.73,1.15,11,11,0,0,1-3.9.7,5.27,5.27,0,0,1-3.39-1.08,4.71,4.71,0,0,1-1.54-3.59V105.53h10.06V98.06H441.21V88.23h-9.72v9.83H425.4v7.47h6.09v28.88a12,12,0,0,0,.89,4.82,8.5,8.5,0,0,0,2.43,3.23,11.16,11.16,0,0,0,3.58,1.85,15.44,15.44,0,0,0,4.32.62,21.68,21.68,0,0,0,7-1.12c2.16-.73,3.89-1.39,5.13-2Z"/><path class="cls-1" d="M503.31,111.86a21.3,21.3,0,0,0-4.74-7.48,22.72,22.72,0,0,0-7.44-5.17,23.59,23.59,0,0,0-9.75-2,25.55,25.55,0,0,0-9.91,1.88,22.25,22.25,0,0,0-7.52,5.25,22.48,22.48,0,0,0-4.86,7.67,25.3,25.3,0,0,0,0,18.39A22.14,22.14,0,0,0,464,138a22.62,22.62,0,0,0,7.52,5.17,24.62,24.62,0,0,0,9.83,1.88,24.24,24.24,0,0,0,12.83-3.31,19.26,19.26,0,0,0,7.91-8.52l-8.33-2.35a10.82,10.82,0,0,1-1.93,2.89,12.07,12.07,0,0,1-2.81,2.27,13.33,13.33,0,0,1-3.51,1.39,14.3,14.3,0,0,1-8.9-.46,13.79,13.79,0,0,1-4.32-2.78,14.49,14.49,0,0,1-3.08-4.31,14.85,14.85,0,0,1-1.47-5.55h37c.08-.39.12-.93.19-1.55s.08-1.27.08-2A25.19,25.19,0,0,0,503.31,111.86Zm-35.89,5.78a16.63,16.63,0,0,1,1.43-5.4,12.69,12.69,0,0,1,3-4.16,13.69,13.69,0,0,1,9.45-3.66,14.11,14.11,0,0,1,5.2,1,13.83,13.83,0,0,1,4.32,2.7,14.09,14.09,0,0,1,3.05,4.16,16.66,16.66,0,0,1,1.46,5.4Z"/><path class="cls-1" d="M555.81,111.86a21.78,21.78,0,0,0-4.7-7.48,22.9,22.9,0,0,0-7.48-5.17,23.46,23.46,0,0,0-9.75-2A25.38,25.38,0,0,0,524,99.13a22.12,22.12,0,0,0-7.56,5.25,23.56,23.56,0,0,0-4.85,7.67,25.17,25.17,0,0,0,0,18.39,23.2,23.2,0,0,0,4.85,7.59A22.49,22.49,0,0,0,524,143.2a24.42,24.42,0,0,0,9.79,1.88,24.08,24.08,0,0,0,12.84-3.31,19.06,19.06,0,0,0,7.9-8.52l-8.29-2.35a10.94,10.94,0,0,1-2,2.89,11.35,11.35,0,0,1-2.82,2.27,12.93,12.93,0,0,1-3.47,1.39,14.33,14.33,0,0,1-3.85.5,14.16,14.16,0,0,1-5.09-1,13.79,13.79,0,0,1-4.32-2.78,15.24,15.24,0,0,1-3.08-4.31,15.64,15.64,0,0,1-1.47-5.55h37c0-.39.12-.93.16-1.55a17.27,17.27,0,0,0,.11-2A25.23,25.23,0,0,0,555.81,111.86Zm-35.89,5.78a16.89,16.89,0,0,1,1.43-5.4,13.16,13.16,0,0,1,3-4.16,13.69,13.69,0,0,1,9.44-3.66,14.16,14.16,0,0,1,5.21,1,13.45,13.45,0,0,1,4.31,2.7,13.27,13.27,0,0,1,3,4.16,15.71,15.71,0,0,1,1.46,5.4Z"/><path class="cls-1" d="M590.31,97.59h-1.42a15.11,15.11,0,0,0-8.25,3.16,20.54,20.54,0,0,0-6.25,7.64V98.06h-9V144.2h9.68V116a13.82,13.82,0,0,1,6.24-6.94,21.66,21.66,0,0,1,10-2.62V97.71A4.21,4.21,0,0,0,590.31,97.59Z"/></g></g></svg>