<svg xmlns="http://www.w3.org/2000/svg" viewBox="0 0 548.01 164.45"><defs><style>.cls-1{fill:#fff;}</style></defs><g id="Layer_2" data-name="Layer 2"><g id="Layer_1-2" data-name="Layer 1"><path class="cls-1" d="M92,163.91c-1.17.13-2.35.24-3.55.32C42.84,167.45,3.34,134,.2,89.46-2.9,45.64,31,9.07,75.5,4.86a2,2,0,0,1,0-.25s0-.05,0-.08v0a2.52,2.52,0,1,1,.11.7C34.63,12.49,4.43,47.4,7.36,88.89,10.42,132.25,47.94,165.16,92,163.91Z"/><path class="cls-1" d="M104.76,0l-4,1-1,6.42-.07.52a33.31,33.31,0,0,0-7.13,2.83l-.07.05c-.2.13-.39.28-.58.42A20.15,20.15,0,0,0,90,13a19.52,19.52,0,0,0-2.89,3.51l-.69,1.1.63.3.57,4.35L85,21.39l-.2-.07-.16,0c-1.18.12-2.38.2-3.54.34L79.29,22a11.57,11.57,0,0,0-1.74.41l-1.72.49c-.58.17-1.12.44-1.69.64a31,31,0,0,0-3.23,1.57,23.27,23.27,0,0,0-5.52,4.56,19.21,19.21,0,0,0-3.69,6.15l-.11.32.24.24,2.71,2.76-5.65.13H58.6v.28q.06,3.12.17,6.21c-3-1.36-5.38-2.58-7.1-3.48L48.56,44S60,53.59,71.33,56.67c-2-.5-14.6-3.74-22.77-8.18V91.56c5.72,10.2,16.07,20.76,34.86,25.53a84.56,84.56,0,0,0,14.8,2.33,47.53,47.53,0,0,0,30.06-6.84l6.22-21.51,5.75-19.88h1.15l-4.51,21.06-2.75,12.81,0,.13-.79,3.69a48.82,48.82,0,0,0,10.41-12.47l7.41-34,.84-3.86,1.12-5.12.94-4.32,2.12-9.73C149.73,27.68,115.86,6.67,104.76,0ZM97.19,22.64c5.9,2.75,11.8,5.54,17.72,8.28l-3.39-1.09C104.06,27.44,96.58,25,89.1,22.68l-.19-3.93,7.52,3.53h0ZM63.74,36.84l46.32,10.58-44.28-8.3Zm83.73,7.42-.61,2.79-2.92,13.38a130.31,130.31,0,0,1-39.49-.58h0c-2.39-.38-4.74-.82-7-1.3-1.71-.35-3.39-.74-5-1.13-.72-.17-1.43-.34-2.14-.53A183.66,183.66,0,0,1,61.14,46.83C66,47.93,77.72,50.57,91,53.07l2,.37,4.88.89c3.74.67,7.32,1.27,10.63,1.79A225.32,225.32,0,0,0,133.75,59l0-1a222.81,222.81,0,0,1-25.21-2.83c-3.32-.52-6.89-1.12-10.63-1.79l-4.86-.88-2-.38c-17-3.22-31.46-6.61-32.11-6.77.05-1.83.12-3.66.16-5.49L65.5,40v0l68.74,12.88.2-1L63,35.68a18.92,18.92,0,0,1,3.47-5,22.25,22.25,0,0,1,5.29-4.06,26.9,26.9,0,0,1,3.06-1.36c.54-.17,1-.41,1.59-.54L78,24.28A10.57,10.57,0,0,1,79.67,24l1.66-.27c1-.11,2.11-.15,3.17-.24l13,4.45,13.2,4.45c8.79,3,17.61,5.86,26.42,8.79l1-2.65-19.94-9.13Q108.63,25,99,20.65h0l-.75-.32h0L89.9,16.57a18.07,18.07,0,0,1,1.7-2A17.05,17.05,0,0,1,94.67,12a14.16,14.16,0,0,1,3.57-1.66c.64-.15,1.27-.37,1.92-.46.45-.06.87-.1,1.32-.12l.49,0,0,0h0l2.28,1.28,2.31,1.34c1.53.9,3,1.83,4.57,2.77,3,1.9,6,3.85,9,5.87s5.81,4.15,8.6,6.38,5.52,4.56,8.08,7.05a119.94,119.94,0,0,0-16-14.34q-4.27-3.29-8.75-6.28c-1.49-1-3-2-4.51-3l-2.29-1.43-2.2-1.33L103,8.1l-.2-.1h0a0,0,0,0,1,0,0h0l-.1,0h0L103,3.53a125.85,125.85,0,0,1,21.55,12.64c1.34,1,2.71,2,4.09,3.07a99.17,99.17,0,0,1,19.8,20.39ZM43.78,94.81a63,63,0,0,1-8-24.17s0-.06,0-.19,0-.26,0-.39v0A54.57,54.57,0,0,1,45.94,31.48c.25-.33.48-.66.75-1a6.55,6.55,0,0,1,.52-.66c.23-.3.46-.59.71-.88s.69-.82,1-1.21c.54-.63,1.14-1.27,1.76-1.88a3.9,3.9,0,0,1,.28-.29,34.12,34.12,0,0,1,4.65-4.13s.53-.4,1.53-1a49.52,49.52,0,0,1,6-3.62A64.56,64.56,0,0,1,80.5,10.86l.4-.08a67,67,0,0,1,8.75-1.24h0c.79-.5,1.79-1.09,2.85-1.64a72.54,72.54,0,0,0-37.38,9,71.82,71.82,0,0,0-13.47,9.58c-.47.43-1,.85-1.42,1.3l0,0s0,0,0,0a72,72,0,0,0-19.57,32h0c-5.5,28.08,25.07,44.26,32.14,47.6l.29.13.29.14.36.16.27.12.19.08h0A67.85,67.85,0,0,1,43.83,94.88S43.8,94.84,43.78,94.81Zm112-35.71-1.68,7.72c2.59,14.25-.17,28.83-8.94,40.62-9.2,12.4-23.25,19.36-38.49,20.56h-.11c-3.07.42-55.67,6.76-88.9-45.94A75.31,75.31,0,0,0,37,131.18c27.35,30.41,73.55,33.58,103.74,7.31l.06-.08C162.16,118,167.26,86.35,155.75,59.1Z"/><path class="cls-1" d="M242.63,62.79q-8.49,9.57-19.7,9.56a24.14,24.14,0,0,1-11-2.55A28,28,0,0,1,203.24,63a32,32,0,0,1-5.68-9.56,29.91,29.91,0,0,1-2.07-10.87,31.42,31.42,0,0,1,2-11.13A30.89,30.89,0,0,1,203.12,22a26.85,26.85,0,0,1,8.53-6.55A24.1,24.1,0,0,1,222.44,13a30.28,30.28,0,0,1,7.87.94,23.73,23.73,0,0,1,6.26,2.64,20.13,20.13,0,0,1,4.78,4,24.53,24.53,0,0,1,3.42,5.15l-3.46,2.06a18.81,18.81,0,0,0-7.87-8.37,23.31,23.31,0,0,0-11.08-2.59,19.85,19.85,0,0,0-9.4,2.22A23.26,23.26,0,0,0,205.8,25a26.36,26.36,0,0,0-4.54,8.24,29.44,29.44,0,0,0-1.56,9.48,26.91,26.91,0,0,0,1.81,9.85,26.59,26.59,0,0,0,5,8.19A24.11,24.11,0,0,0,214,66.38a20.72,20.72,0,0,0,9.23,2.1A22.13,22.13,0,0,0,233.36,66a30.44,30.44,0,0,0,9.27-7.83V46.89H229.36V43.51h16.89V71.94h-3.62Z"/><path class="cls-1" d="M257.71,11.79h4.2V63.45a5.18,5.18,0,0,0,1.36,3.79,4.94,4.94,0,0,0,3.75,1.4,13.62,13.62,0,0,0,2.18-.2,11.71,11.71,0,0,0,2.35-.62l.82,3.3a17,17,0,0,1-3.46.94,20.08,20.08,0,0,1-3.54.37,7.51,7.51,0,0,1-5.56-2.1,7.62,7.62,0,0,1-2.1-5.64Z"/><path class="cls-1" d="M296.68,72.76A19.67,19.67,0,0,1,288.32,71a20.58,20.58,0,0,1-6.64-4.82,22.29,22.29,0,0,1-4.37-7.08,23.34,23.34,0,0,1-1.56-8.49,23.21,23.21,0,0,1,6-15.66,20.73,20.73,0,0,1,6.64-4.82,19.47,19.47,0,0,1,8.28-1.77,19.23,19.23,0,0,1,8.24,1.77,21.37,21.37,0,0,1,6.63,4.82A22.47,22.47,0,0,1,316,42a23.4,23.4,0,0,1,0,17.06,22.75,22.75,0,0,1-4.41,7.08A20.54,20.54,0,0,1,305,71,19.47,19.47,0,0,1,296.68,72.76Zm-16.81-22a19.18,19.18,0,0,0,1.32,7.13,18.62,18.62,0,0,0,3.58,5.81,16.87,16.87,0,0,0,5.32,3.91,15.34,15.34,0,0,0,13,0,16.92,16.92,0,0,0,5.35-4,19.84,19.84,0,0,0,3.63-20.23,18.73,18.73,0,0,0-3.63-5.85,18,18,0,0,0-5.31-4,14.42,14.42,0,0,0-6.47-1.48,14.65,14.65,0,0,0-6.51,1.48,17,17,0,0,0-5.31,4,19.93,19.93,0,0,0-3.63,6A19.29,19.29,0,0,0,279.87,50.76Z"/><path class="cls-1" d="M347.52,72.76a17.85,17.85,0,0,1-9.4-2.63,19.57,19.57,0,0,1-6.83-6.76v8.57H327.5V11.79h4.11V38.4a27.33,27.33,0,0,1,7.21-7.25,16.87,16.87,0,0,1,9.6-2.8,17.29,17.29,0,0,1,8.2,1.94,19.07,19.07,0,0,1,6.18,5.11,23.72,23.72,0,0,1,3.88,7.16A25.25,25.25,0,0,1,368,50.68a23.06,23.06,0,0,1-1.57,8.45,22.17,22.17,0,0,1-4.33,7A21.31,21.31,0,0,1,355.63,71,18.35,18.35,0,0,1,347.52,72.76Zm-.83-3.7a15.34,15.34,0,0,0,6.93-1.57A17.44,17.44,0,0,0,359,63.33a20,20,0,0,0,3.55-5.89,18.59,18.59,0,0,0,1.27-6.76,20.61,20.61,0,0,0-1.19-7,19.27,19.27,0,0,0-3.38-5.93,17.18,17.18,0,0,0-5.19-4.17,14.21,14.21,0,0,0-6.63-1.56,13.73,13.73,0,0,0-5.11.95,17.79,17.79,0,0,0-4.41,2.51,20.12,20.12,0,0,0-3.63,3.63,24,24,0,0,0-2.68,4.28V57.6a9,9,0,0,0,1.82,4.49,16.17,16.17,0,0,0,3.75,3.63,19.3,19.3,0,0,0,4.74,2.43A14.41,14.41,0,0,0,346.69,69.06Z"/><path class="cls-1" d="M388.47,72.76a14.7,14.7,0,0,1-10-3.83,12.37,12.37,0,0,1-3-4.2,12.88,12.88,0,0,1-1.07-5.23,10.11,10.11,0,0,1,1.32-5.11,12.64,12.64,0,0,1,3.67-4A18.16,18.16,0,0,1,385,47.76a26.23,26.23,0,0,1,7.25-.95,39.15,39.15,0,0,1,7,.62,33.8,33.8,0,0,1,6.31,1.69V44.91q0-6.09-3.46-9.68t-9.4-3.58A18.78,18.78,0,0,0,386,33a33.44,33.44,0,0,0-7.13,3.79L377.35,34q8.23-5.6,15.65-5.6,7.75,0,12.2,4.49t4.45,12.4V66.17c0,1.38.6,2.06,1.81,2.06v3.71a7.61,7.61,0,0,1-.87.12c-.3,0-.56,0-.78,0A3.33,3.33,0,0,1,407.18,71,4.64,4.64,0,0,1,406,68.31V64.77a19.24,19.24,0,0,1-7.58,5.93A24.08,24.08,0,0,1,388.47,72.76Zm.82-3.29a21,21,0,0,0,8.78-1.82,15,15,0,0,0,6.14-4.77,5.55,5.55,0,0,0,1.32-3.3V52a32.87,32.87,0,0,0-6.18-1.73,38.26,38.26,0,0,0-6.68-.58,23.11,23.11,0,0,0-5.85.7,15.67,15.67,0,0,0-4.53,1.94,8.91,8.91,0,0,0-2.92,3,7.59,7.59,0,0,0-1,3.91,10,10,0,0,0,.82,4,9.45,9.45,0,0,0,2.31,3.25,11,11,0,0,0,3.5,2.15A11.88,11.88,0,0,0,389.29,69.47Z"/><path class="cls-1" d="M422.5,11.79h4.2V63.45a5.22,5.22,0,0,0,1.36,3.79,5,5,0,0,0,3.75,1.4,13.62,13.62,0,0,0,2.18-.2,11.36,11.36,0,0,0,2.35-.62l.83,3.3a17.23,17.23,0,0,1-3.46.94,20.28,20.28,0,0,1-3.55.37,7.53,7.53,0,0,1-5.56-2.1,7.62,7.62,0,0,1-2.1-5.64Z"/><path class="cls-1" d="M197.09,85.16v9.25h22.13v53.8h10.57V94.41h22V85.16Z"/><path class="cls-1" d="M270.88,149.15a26,26,0,0,1-10.37-2,24.12,24.12,0,0,1-8-5.47,24.7,24.7,0,0,1-5.14-8,26.1,26.1,0,0,1-1.82-9.71,26.53,26.53,0,0,1,1.82-9.77,25.1,25.1,0,0,1,5.14-8.12,23.64,23.64,0,0,1,8-5.51,26.19,26.19,0,0,1,10.46-2,25.12,25.12,0,0,1,10.32,2,24.65,24.65,0,0,1,7.9,5.47,23.45,23.45,0,0,1,5,7.94,26.42,26.42,0,0,1,1.73,9.48c0,.74,0,1.45-.09,2.1s-.13,1.2-.19,1.64H256.49a16.82,16.82,0,0,0,1.54,5.88,15.55,15.55,0,0,0,3.27,4.53,14.4,14.4,0,0,0,9.95,4,16,16,0,0,0,4.06-.52,14.34,14.34,0,0,0,3.69-1.49,13.06,13.06,0,0,0,3-2.38,11.3,11.3,0,0,0,2.06-3.08l8.78,2.52a20.35,20.35,0,0,1-8.36,9A25.87,25.87,0,0,1,270.88,149.15Zm14.85-29a16.47,16.47,0,0,0-1.54-5.7A14.77,14.77,0,0,0,281,110a14.47,14.47,0,0,0-4.57-2.85,15.06,15.06,0,0,0-5.51-1,14.63,14.63,0,0,0-10,3.88,14,14,0,0,0-3.17,4.44,17.13,17.13,0,0,0-1.5,5.7Z"/><path class="cls-1" d="M317.3,149.15a18.1,18.1,0,0,1-6.58-1.16,15.84,15.84,0,0,1-5.23-3.22,15.14,15.14,0,0,1-3.46-4.86,14.63,14.63,0,0,1-1.26-6.07,13.15,13.15,0,0,1,1.49-6.26,14.74,14.74,0,0,1,4.25-4.86,20.75,20.75,0,0,1,6.54-3.18,29.61,29.61,0,0,1,8.36-1.12,38.7,38.7,0,0,1,6.82.61,34.23,34.23,0,0,1,6.07,1.64V117.3q0-5.42-3.08-8.45c-2.06-2-5-3-8.87-3a21.51,21.51,0,0,0-7.71,1.45,39.16,39.16,0,0,0-7.8,4.16l-3.18-6.54a34.68,34.68,0,0,1,19.62-6.35q10.1,0,15.69,5.13t5.61,14.76v17.66q0,3.27,2.7,3.36v8.78c-1,.19-1.85.31-2.56.38s-1.42.09-2.11.09a6.59,6.59,0,0,1-4.62-1.5,6.37,6.37,0,0,1-2-3.83l-.28-3.08a21.77,21.77,0,0,1-8.08,6.59A23.78,23.78,0,0,1,317.3,149.15Zm2.8-7.56a18.42,18.42,0,0,0,7.06-1.36,12.08,12.08,0,0,0,5.18-3.78,4.72,4.72,0,0,0,2-3.55v-6.44a30.23,30.23,0,0,0-5.55-1.59,31.09,31.09,0,0,0-5.75-.56,15.66,15.66,0,0,0-9,2.38,7.3,7.3,0,0,0-3.51,6.3,7.93,7.93,0,0,0,2.71,6.12A9.81,9.81,0,0,0,320.1,141.59Z"/><path class="cls-1" d="M353.82,123.75A26.5,26.5,0,0,1,355.6,114a23.77,23.77,0,0,1,13.08-13.49,26.16,26.16,0,0,1,10.46-2,24.67,24.67,0,0,1,13,3.31,21.16,21.16,0,0,1,8.17,8.83l-10,3.18a12.88,12.88,0,0,0-4.76-4.82,13.11,13.11,0,0,0-6.63-1.72,13.69,13.69,0,0,0-5.75,1.21,14,14,0,0,0-4.62,3.41,16.28,16.28,0,0,0-3.08,5.19,18.67,18.67,0,0,0-1.12,6.63,17.89,17.89,0,0,0,1.17,6.58,16.63,16.63,0,0,0,3.17,5.28,14.74,14.74,0,0,0,4.67,3.5,12.89,12.89,0,0,0,5.65,1.26,14.16,14.16,0,0,0,3.74-.51,13.17,13.17,0,0,0,3.41-1.45,13.44,13.44,0,0,0,2.71-2.15,8.1,8.1,0,0,0,1.72-2.61l10.1,3a20.08,20.08,0,0,1-8.13,9,25.15,25.15,0,0,1-13.45,3.5,25.46,25.46,0,0,1-10.37-2.05,24.24,24.24,0,0,1-8-5.56,25.25,25.25,0,0,1-5.14-8.08A26.1,26.1,0,0,1,353.82,123.75Z"/><path class="cls-1" d="M452.33,110.82a17.35,17.35,0,0,0-2.48-6.32,13.27,13.27,0,0,0-4.72-4.35,15.37,15.37,0,0,0-7.52-1.63,20.45,20.45,0,0,0-10.5,2.82,20.16,20.16,0,0,0-7.61,7.85v-24H409.2v63.05h10.3v-29a14.21,14.21,0,0,1,2.24-4.63,18,18,0,0,1,3.4-3.67,16.05,16.05,0,0,1,4.08-2.38,12,12,0,0,1,4.28-.81,8,8,0,0,1,6.87,3.19c1.6,2.18,2.38,5.47,2.38,10v27.36H453V118.44A41.94,41.94,0,0,0,452.33,110.82Z"/><path class="cls-1" d="M487.11,149.15a25.94,25.94,0,0,1-10.36-2,24,24,0,0,1-8-5.47,24.7,24.7,0,0,1-5.14-8,26.1,26.1,0,0,1-1.82-9.71,26.53,26.53,0,0,1,1.82-9.77,25.1,25.1,0,0,1,5.14-8.12,23.54,23.54,0,0,1,8-5.51,26.19,26.19,0,0,1,10.46-2,25.12,25.12,0,0,1,10.32,2,24.76,24.76,0,0,1,7.9,5.47,23.45,23.45,0,0,1,5,7.94,26.42,26.42,0,0,1,1.73,9.48c0,.74,0,1.45-.09,2.1s-.13,1.2-.19,1.64H472.73a16.82,16.82,0,0,0,1.54,5.88,15.55,15.55,0,0,0,3.27,4.53,14.4,14.4,0,0,0,9.95,4,16,16,0,0,0,4.06-.52,14.34,14.34,0,0,0,3.69-1.49,13.06,13.06,0,0,0,3-2.38,11.3,11.3,0,0,0,2.06-3.08l8.78,2.52a20.35,20.35,0,0,1-8.36,9A25.91,25.91,0,0,1,487.11,149.15Zm14.86-29a16.47,16.47,0,0,0-1.54-5.7A14.77,14.77,0,0,0,497.2,110a14.58,14.58,0,0,0-4.57-2.85,15.08,15.08,0,0,0-5.52-1,14.63,14.63,0,0,0-10,3.88,14,14,0,0,0-3.17,4.44,17.13,17.13,0,0,0-1.5,5.7Z"/><path class="cls-1" d="M548,108.24a23.12,23.12,0,0,0-10.6,2.76,14.54,14.54,0,0,0-6.58,7.33v29.89H520.55V99.37h9.53V110.3a22.31,22.31,0,0,1,6.58-8.08,16,16,0,0,1,8.74-3.32h1.54A5.7,5.7,0,0,1,548,99Z"/></g></g></svg>