<svg xmlns="http://www.w3.org/2000/svg" viewBox="0 0 524.49 162.43"><defs><style>.cls-1{fill:#fff;}</style></defs><g id="Layer_2" data-name="Layer 2"><g id="Layer_1-2" data-name="Layer 1"><path class="cls-1" d="M210.92,16.73h5L241,75.35h-6.3L226.92,57H199.77L192,75.35h-6.38Zm14.63,35.75-12.16-29-12.34,29Z"/><path class="cls-1" d="M249.72,75.35V16.73h6V75.35Z"/><path class="cls-1" d="M311.41,70.23v5.12H270.82V16.73h39.83v5.12H276.78V43h29.53v4.87H276.78V70.23Z"/><path class="cls-1" d="M356.68,27.71a18.32,18.32,0,0,0-6.81-4.54,25.42,25.42,0,0,0-9.7-1.74q-8,0-11.65,2.94a9.65,9.65,0,0,0-3.66,8,8.5,8.5,0,0,0,1,4.34,8.35,8.35,0,0,0,3,2.93,21.42,21.42,0,0,0,5.23,2.15c2.13.6,4.64,1.21,7.53,1.81a85.29,85.29,0,0,1,8.72,2.23,25.59,25.59,0,0,1,6.6,3.1,13.12,13.12,0,0,1,4.17,4.5A13.67,13.67,0,0,1,362.55,60a14.54,14.54,0,0,1-1.61,7,14.17,14.17,0,0,1-4.51,5,20.4,20.4,0,0,1-6.9,2.93,38,38,0,0,1-8.76.95,36.69,36.69,0,0,1-24.25-8.51l3-4.7a23.35,23.35,0,0,0,3.87,3.14,28.53,28.53,0,0,0,5,2.6,32.49,32.49,0,0,0,5.91,1.73,34.57,34.57,0,0,0,6.64.62q7.23,0,11.27-2.52a8.38,8.38,0,0,0,4.05-7.64A8.62,8.62,0,0,0,355.11,56a9.89,9.89,0,0,0-3.45-3.22,24.66,24.66,0,0,0-5.7-2.35q-3.4-1-7.91-2-4.77-1.08-8.34-2.23a22.47,22.47,0,0,1-6-2.89A11.47,11.47,0,0,1,320,39.15a13.21,13.21,0,0,1-1.23-6,16.07,16.07,0,0,1,1.57-7.23,14.32,14.32,0,0,1,4.47-5.28,21.46,21.46,0,0,1,6.81-3.22,31.76,31.76,0,0,1,8.68-1.11A30.5,30.5,0,0,1,351,18.09a29.29,29.29,0,0,1,8.56,5Z"/><path class="cls-1" d="M413.61,70.23v5.12H373V16.73h39.82v5.12H379V43H408.5v4.87H379V70.23Z"/><path class="cls-1" d="M419.57,45.63a30.46,30.46,0,0,1,1.91-10.53,29.06,29.06,0,0,1,5.57-9.37,28.54,28.54,0,0,1,9-6.73,27.46,27.46,0,0,1,12.17-2.6A25.77,25.77,0,0,1,462.07,20a21.87,21.87,0,0,1,8.47,9.25L465.86,32a17.56,17.56,0,0,0-3.54-4.87,19.17,19.17,0,0,0-9.4-5,24.16,24.16,0,0,0-5-.54,20.68,20.68,0,0,0-9.61,2.15,22,22,0,0,0-7,5.61,24,24,0,0,0-4.3,7.8,27.51,27.51,0,0,0-1.45,8.8,25.22,25.22,0,0,0,1.75,9.33A26.25,26.25,0,0,0,432,63.17a22.6,22.6,0,0,0,7.15,5.45,20.09,20.09,0,0,0,9,2,23.38,23.38,0,0,0,5.23-.62,21,21,0,0,0,5.19-2,22,22,0,0,0,4.64-3.39,17.49,17.49,0,0,0,3.57-4.91l4.94,2.47a18,18,0,0,1-4.09,5.83,26.82,26.82,0,0,1-5.87,4.25,29.72,29.72,0,0,1-6.85,2.64,28.87,28.87,0,0,1-7.1.91,24.79,24.79,0,0,1-11.41-2.64,29.59,29.59,0,0,1-8.93-6.9,31.61,31.61,0,0,1-5.83-9.66A30.38,30.38,0,0,1,419.57,45.63Z"/><path class="cls-1" d="M240.19,145.28v-38.8l-15.57,28.9h-6.38l-15.58-28.9v38.8H190.92V86.66h12.6L221.38,120l18-33.36h12.51v58.62Z"/><path class="cls-1" d="M283.5,146.11a25.51,25.51,0,0,1-9.7-1.77,22.36,22.36,0,0,1-7.4-4.84,21.22,21.22,0,0,1-4.72-7.1,22.09,22.09,0,0,1-1.66-8.5,23.61,23.61,0,0,1,1.61-8.71,21.28,21.28,0,0,1,4.68-7.19,22.54,22.54,0,0,1,7.45-4.91,25.47,25.47,0,0,1,9.83-1.82,24.8,24.8,0,0,1,9.74,1.82,22.44,22.44,0,0,1,7.32,4.87,20.77,20.77,0,0,1,4.59,7.1,23.06,23.06,0,0,1,1.58,8.43c0,.71,0,1.4,0,2.06a7.76,7.76,0,0,1-.22,1.65H272.1a12.52,12.52,0,0,0,1.28,4.54,11.31,11.31,0,0,0,2.64,3.39,11.46,11.46,0,0,0,3.65,2.15,12.52,12.52,0,0,0,4.26.74,13.47,13.47,0,0,0,6.42-1.61,8.61,8.61,0,0,0,4.13-4.25l9.79,2.64a19.6,19.6,0,0,1-7.87,8.13A25,25,0,0,1,283.5,146.11ZM295.08,120a11.35,11.35,0,0,0-3.71-7.8,11.47,11.47,0,0,0-7.95-2.94,11.73,11.73,0,0,0-4.3.79,11.17,11.17,0,0,0-6,5.57,11.63,11.63,0,0,0-1.15,4.38Z"/><path class="cls-1" d="M383.06,145.28h-11.4V121q0-5.2-1.83-7.6a6,6,0,0,0-5.06-2.39,9.7,9.7,0,0,0-6.38,2.52,13.77,13.77,0,0,0-4.26,6.56v25.18h-11.4V121q0-5.2-1.83-7.6a6,6,0,0,0-5.06-2.39,9.81,9.81,0,0,0-6.34,2.48,13.36,13.36,0,0,0-4.3,6.52v25.26H313.8V102h10.29v8a16.76,16.76,0,0,1,6.77-6.48,20.64,20.64,0,0,1,9.83-2.28c3.74,0,6.63.89,8.68,2.65a11.73,11.73,0,0,1,3.91,6.52,18.39,18.39,0,0,1,16.42-9.17,13.6,13.6,0,0,1,6.73,1.49,11,11,0,0,1,4.08,3.88,16.12,16.12,0,0,1,2,5.45,34.58,34.58,0,0,1,.55,6.19Z"/><path class="cls-1" d="M418.38,146.11a18.35,18.35,0,0,1-9.11-2.23,16.49,16.49,0,0,1-6.29-6.11v7.51H393V85h11.4v24.6a16.93,16.93,0,0,1,6.26-6.15,18.09,18.09,0,0,1,9.06-2.19,17.21,17.21,0,0,1,7.91,1.82,19.88,19.88,0,0,1,6.17,4.87,21.87,21.87,0,0,1,4,7.19,26.62,26.62,0,0,1,1.41,8.67,24,24,0,0,1-1.58,8.75,21.89,21.89,0,0,1-4.38,7.06,20.64,20.64,0,0,1-6.64,4.75A19.84,19.84,0,0,1,418.38,146.11Zm-3.15-9.41a12.25,12.25,0,0,0,5-1,11.9,11.9,0,0,0,3.91-2.77,12.28,12.28,0,0,0,2.51-4.05,13.51,13.51,0,0,0,.9-4.95,15.15,15.15,0,0,0-.85-5,13.12,13.12,0,0,0-2.43-4.21,12.08,12.08,0,0,0-3.7-2.89,10.32,10.32,0,0,0-4.68-1.07,10.63,10.63,0,0,0-6.85,2.43,16.22,16.22,0,0,0-4.64,6v10.32a9.28,9.28,0,0,0,1.75,3,12.51,12.51,0,0,0,5.74,3.76A10.92,10.92,0,0,0,415.23,136.7Z"/><path class="cls-1" d="M467.65,146.11a25.52,25.52,0,0,1-9.71-1.77,22.36,22.36,0,0,1-7.4-4.84,21.37,21.37,0,0,1-4.72-7.1,22.09,22.09,0,0,1-1.66-8.5,23.41,23.41,0,0,1,1.62-8.71,21,21,0,0,1,4.68-7.19,22.39,22.39,0,0,1,7.44-4.91,25.47,25.47,0,0,1,9.83-1.82,24.8,24.8,0,0,1,9.74,1.82,22.44,22.44,0,0,1,7.32,4.87,20.8,20.8,0,0,1,4.6,7.1,23.05,23.05,0,0,1,1.57,8.43c0,.71,0,1.4,0,2.06a8.55,8.55,0,0,1-.21,1.65H456.24a12.52,12.52,0,0,0,1.28,4.54,11.37,11.37,0,0,0,6.3,5.54,12.42,12.42,0,0,0,4.25.74,13.54,13.54,0,0,0,6.43-1.61,8.63,8.63,0,0,0,4.12-4.25l9.79,2.64a19.6,19.6,0,0,1-7.87,8.13A25,25,0,0,1,467.65,146.11ZM479.22,120a11.38,11.38,0,0,0-3.7-7.8,11.51,11.51,0,0,0-8-2.94,11.77,11.77,0,0,0-4.3.79,11.17,11.17,0,0,0-6,5.57,11.81,11.81,0,0,0-1.15,4.38Z"/><path class="cls-1" d="M524.49,111.6a23,23,0,0,0-9.28,1.94,11.54,11.54,0,0,0-5.87,5.57v26.17h-11.4V102h10.47v9.25a19.54,19.54,0,0,1,2.8-4,22.09,22.09,0,0,1,3.49-3.1,16.41,16.41,0,0,1,3.79-2,10.69,10.69,0,0,1,3.7-.7h1.4a5.19,5.19,0,0,1,.9.08Z"/><path class="cls-1" d="M92,161.89c-1.17.13-2.35.24-3.55.32C42.84,165.43,3.34,132,.2,87.44-2.9,43.62,31,7,75.5,2.84a2.11,2.11,0,0,1,0-.25s0,0,0-.08v0a2.52,2.52,0,1,1,.11.7C34.63,10.47,4.43,45.37,7.36,86.87,10.42,130.23,47.94,163.14,92,161.89Z"/><path class="cls-1" d="M43.78,92.79a63,63,0,0,1-8-24.17s0-.07,0-.19,0-.26,0-.39v0A54.56,54.56,0,0,1,45.94,29.46c.25-.33.48-.66.75-1a8,8,0,0,1,.52-.67c.23-.3.46-.58.71-.87s.69-.82,1-1.21c.54-.63,1.14-1.27,1.76-1.88a3.9,3.9,0,0,1,.28-.29,34.18,34.18,0,0,1,4.65-4.14s.53-.39,1.53-1a49.52,49.52,0,0,1,6-3.62A64.21,64.21,0,0,1,80.5,8.84l.4-.08a65.37,65.37,0,0,1,8.75-1.24h0c.79-.5,1.79-1.09,2.85-1.65A72.48,72.48,0,0,0,41.67,24.42c-.47.44-1,.86-1.42,1.31l0,0s0,0,0,0a72,72,0,0,0-19.57,32h0C15.14,85.84,45.71,102,52.78,105.37l.29.13a2,2,0,0,1,.29.14l.36.16.27.11.19.09h0A68.16,68.16,0,0,1,43.83,92.86S43.8,92.82,43.78,92.79Z"/><path class="cls-1" d="M119.11,119.33h0c-1.24-2.59-14.79-41.72-19.23-51a.27.27,0,0,1,0-.2l1.24-5.19a.31.31,0,0,1,.42-.21,22.46,22.46,0,0,1,2.12,1c1.67,1,7.32,4.41,9.64,7a30.08,30.08,0,0,1,2.11,3.06c1,1.6,4,1.69,6.11.65,1-.51,2-3.29-.61-5-.75-.51-3.37-1.51-4.83-2.68-1-.8-9.37-8.08-10.43-9.18-.61-.65-3.14-3-3.65-3.42a.27.27,0,0,1-.1-.19c-.09-2.19-.6-13.07-1.72-17.86-.6-2.56-1.24-4.22-1.15-5.46.07-.95,0-5.4,2.45-4.89,3.93.82,6.51-6.15,6.22-10.39-.26-3.61-2.6-6.89-8.33-7.17-2.2-.1-6.45,1.6-7.41,4.76-1.21,4-.29,5.53-.37,7.58a19.74,19.74,0,0,1-.11,2.31c-.12.67-.84,4-1.8,4.91-1.32,1.21-4.69,2.73-7.85,6.86C79.34,37.78,76.88,45.5,75.1,50c-2.78,7-4.58,17.93-6.59,20.56a9.12,9.12,0,0,0-2.12,5.94c.2,4.07,5.37,3.25,6.48,1.55s1.18-4.41,1.38-5.69c.41-2.71,5.07-12.86,6.91-16.8a.31.31,0,0,1,.59.16c-.27,3-.81,8.77-1,10.07,0,0,0,0,0,.06a66.4,66.4,0,0,0-2.61,8.48c-.54,2.26-.68,4.28-1.23,8a121.06,121.06,0,0,1-3.53,16.12.23.23,0,0,1-.09.14c-5.18,4.37-4.93,8.22-9.88,13.51a.31.31,0,0,0,.11.5l7.88,3.31a.29.29,0,0,0,.34-.08c1.06-1.22,7.36-8.52,10.17-12.4C85.07,99,89.05,89,91.48,84.11a.31.31,0,0,1,.56,0c2,5.25,9.6,18.26,13.15,24.75l0,.06c1.55,5,.49,3.22,5.37,11.89.13.23,3.87-.34,8.52-1.5"/><path class="cls-1" d="M130.05,120.26a55.38,55.38,0,0,1-24,7.44h-.11c-3.09.43-56.13,6.82-89.64-46.32a75.88,75.88,0,0,0,19.57,49.52c27.58,30.67,74.17,33.86,104.61,7.36l.07-.06c21.66-20.75,26.72-53,14.75-80.62v0c-.93-2.15-2-4.27-3.09-6.34-.47-.85-.94-1.68-1.44-2.5A78.63,78.63,0,0,0,141.43,36a57.26,57.26,0,0,0-6.72-6.34l0,0L134,29.1v0c-1.89-1.5-3.85-2.88-5.85-4.17l0,.05a72.79,72.79,0,0,1,6.15,5.24l3.42,3.49a67.79,67.79,0,0,1,11.12,16.46c.09.21.19.42.29.63a64.79,64.79,0,0,1,3.92,11l.08.36c2.19,13.92.35,33.28-8.19,44.8a49.9,49.9,0,0,1-12.74,12"/></g></g></svg>